<?xml version="1.0" encoding="UTF-8" standalone="no"?>
<svg
   xmlns:dc="http://purl.org/dc/elements/1.1/"
   xmlns:cc="http://creativecommons.org/ns#"
   xmlns:rdf="http://www.w3.org/1999/02/22-rdf-syntax-ns#"
   xmlns:svg="http://www.w3.org/2000/svg"
   xmlns="http://www.w3.org/2000/svg"
   xmlns:sodipodi="http://sodipodi.sourceforge.net/DTD/sodipodi-0.dtd"
   xmlns:inkscape="http://www.inkscape.org/namespaces/inkscape"
   width="1277px"
   height="632px"
   viewBox="0 0 1277 632"
   version="1.1"
   id="svg2"
   inkscape:version="0.47 r22583"
   sodipodi:docname="flow-am.svg">
  <metadata
     id="metadata273">
    <rdf:RDF>
      <cc:Work
         rdf:about="">
        <dc:format>image/svg+xml</dc:format>
        <dc:type
           rdf:resource="http://purl.org/dc/dcmitype/StillImage" />
      </cc:Work>
    </rdf:RDF>
  </metadata>
  <sodipodi:namedview
     pagecolor="#ffffff"
     bordercolor="#666666"
     borderopacity="1"
     objecttolerance="10"
     gridtolerance="10"
     guidetolerance="10"
     inkscape:pageopacity="0"
     inkscape:pageshadow="2"
     inkscape:window-width="1600"
     inkscape:window-height="838"
     id="namedview271"
     showgrid="false"
     inkscape:zoom="0.74683544"
     inkscape:cx="696.35693"
     inkscape:cy="154.98268"
     inkscape:window-x="-8"
     inkscape:window-y="-8"
     inkscape:window-maximized="1"
     inkscape:current-layer="Resource-Controller" />
  <!-- Generator: Sketch 50.2 (55047) - http://www.bohemiancoding.com/sketch -->
  <title
     id="title4">Group</title>
  <desc
     id="desc6">Created with Sketch.</desc>
  <defs
     id="defs8">
    <inkscape:perspective
       sodipodi:type="inkscape:persp3d"
       inkscape:vp_x="0 : 316 : 1"
       inkscape:vp_y="0 : 1000 : 0"
       inkscape:vp_z="1277 : 316 : 1"
       inkscape:persp3d-origin="638.5 : 210.66667 : 1"
       id="perspective275" />
  </defs>
  <g
     id="Page-1"
     stroke="none"
     stroke-width="1"
     fill="none"
     fill-rule="evenodd">
    <g
       id="Artboard"
       transform="translate(-150.000000, -108.000000)">
      <g
         id="Group"
         transform="translate(150.000000, 108.000000)">
        <g
           id="Path-2"
           transform="translate(559.000000, 128.000000)">
          <path
             d="M0,8 L98,8"
             stroke="#152935"
             stroke-width="2"
             id="path14" />
          <polygon
             id="Triangle"
             fill="#152935"
             fill-rule="evenodd"
             points="90 16 90 0 100 8" />
        </g>
        <g
           id="g17"
           transform="translate(1079.000000, 555.000000)">
          <path
             d="M0,9 L60,9"
             stroke="#152935"
             stroke-width="2"
             id="path19" />
          <polygon
             id="polygon21"
             fill="#152935"
             fill-rule="evenodd"
             points="52 17 52 1 62 9" />
        </g>
        <g
           id="g23"
           transform="translate(259.000000, 128.000000)">
          <path
             d="M0,8 L98,8"
             stroke="#152935"
             stroke-width="2"
             id="path25" />
          <polygon
             id="polygon27"
             fill="#152935"
             fill-rule="evenodd"
             points="90 16 90 0 100 8" />
        </g>
        <g
           id="g29"
           transform="translate(117.000000, 340.000000) rotate(-90.000000) translate(-117.000000, -340.000000) translate(54.000000, 332.000000)">
          <path
             d="M0,8 L124,8"
             stroke="#152935"
             stroke-width="2"
             id="path31" />
          <polygon
             id="polygon33"
             fill="#152935"
             fill-rule="evenodd"
             points="116 16 116 0 126 8" />
        </g>
        <g
           id="IBM-Cloud">
          <g
             id="Page">
            <rect
               id="Mask"
               x="0"
               y="0"
               width="248"
               height="267"
               rx="6"
               fill="#3D70B2" />
            <g
               id="Base-Elements-/-Browser">
              <g
                 id="Browser"
                 transform="translate(0.000000, 0.000000)">
                <path
                   d="M0,6.00670248 C0,2.6892923 2.67969716,0 6.00748919,0 L241.992511,0 C245.310355,0 248,2.68475771 248,6.00670248 L248,28 L0,28 L0,6.00670248 Z"
                   id="Combined-Shape"
                   fill="#CFD8DC" />
                <circle
                   id="Oval"
                   cx="10.5"
                   cy="14.7"
                   r="3.5"
                   d="m 14,14.7 c 0,1.932996 -1.567003,3.5 -3.5,3.5 -1.9329966,0 -3.5,-1.567004 -3.5,-3.5 0,-1.932997 1.5670034,-3.5 3.5,-3.5 1.932997,0 3.5,1.567003 3.5,3.5 z"
                   fill="#F9F9FA" />
                <circle
                   id="circle42"
                   cx="20.5"
                   cy="14.7"
                   r="3.5"
                   d="m 24,14.7 c 0,1.932996 -1.567003,3.5 -3.5,3.5 -1.932997,0 -3.5,-1.567004 -3.5,-3.5 0,-1.932997 1.567003,-3.5 3.5,-3.5 1.932997,0 3.5,1.567003 3.5,3.5 z"
                   fill="#F9F9FA" />
                <circle
                   id="circle44"
                   cx="30.5"
                   cy="14.7"
                   r="3.5"
                   d="m 34,14.7 c 0,1.932996 -1.567003,3.5 -3.5,3.5 -1.932997,0 -3.5,-1.567004 -3.5,-3.5 0,-1.932997 1.567003,-3.5 3.5,-3.5 1.932997,0 3.5,1.567003 3.5,3.5 z"
                   fill="#F9F9FA" />
              </g>
            </g>
          </g>
          <text
             font-size="20"
             font-weight="500"
             line-spacing="25"
             id="text46"
             x="10"
             style="font-size:20px;font-weight:500;fill:#fafafa;font-family:'IBMPlexSans-SemiBold, IBM Plex Sans'">
            <tspan
               x="32"
               y="101"
               id="tspan48">IBM Cloud</tspan>
          </text>
          <text
             id="User-logs-in,-goes-t"
             font-size="14"
             font-weight="normal"
             line-spacing="20"
             style="font-size:14px;font-weight:normal;fill:#fafafa;font-family:'IBMPlexSans, IBM Plex Sans'"
             x="10">
            <tspan
               x="32"
               y="131"
               id="tspan51"
               style="font-family:SimHei;-inkscape-font-specification:SimHei">用户登录，转至“目录”，</tspan>
          </text>
          <text
             font-size="14"
             font-weight="normal"
             line-spacing="20"
             id="text3081"
             style="font-size:14px;font-weight:normal;fill:#fafafa;font-family:'IBMPlexSans, IBM Plex Sans'"
             x="11.338984"
             y="20.084745">
            <tspan
               x="32"
               y="149"
               style="font-family:SimHei;-inkscape-font-specification:SimHei"
               id="tspan3083">然后选取服务。用户单击</tspan>
          </text>
          <text
             font-size="14"
             font-weight="normal"
             line-spacing="20"
             id="text3085"
             x="0.62711811"
             y="45.525425"
             style="font-size:14px;font-weight:normal;fill:#fafafa;font-family:'IBMPlexSans, IBM Plex Sans'">
            <tspan
               x="18"
               y="167"
               style="font-family:SimHei;-inkscape-font-specification:SimHei"
               id="tspan3087">“通过服务创建”仪表板。</tspan>
          </text>
        </g>
        <g
           id="metered-plan"
           transform="translate(975.000000, 352.000000)">
          <g
             id="Comment-Up"
             fill="#BA8FF7">
            <rect
               id="rect59"
               x="0"
               y="0"
               width="248"
               height="131.283341"
               rx="6" />
          </g>
          <text
             id="Metered-Plan-Usage-S"
             font-size="20"
             font-weight="500"
             line-spacing="25"
             y="4"
             style="font-size:20px;font-weight:500;fill:#fafafa;font-family:'IBMPlexSans-SemiBold, IBM Plex Sans'">
            <tspan
               x="26"
               y="40"
               id="tspan62"
               style="font-family:SimHei;-inkscape-font-specification:SimHei">提交计量套餐使用量</tspan>
          </text>
          <text
             id="Service-provider-mus"
             font-size="14"
             font-weight="normal"
             style="font-size:14px;font-weight:normal;fill:#fafafa;font-family:'IBMPlexSans, IBM Plex Sans'"
             x="1.3389831"
             y="-14.059322">
            <tspan
               x="26"
               y="75"
               id="tspan67"
               style="font-family:SimHei;-inkscape-font-specification:SimHei">服务提供者必须</tspan>
          </text>
          <text
             font-size="14"
             font-weight="normal"
             id="text3174"
             x="0.66949153"
             y="3.3474574"
             style="font-size:14px;font-weight:normal;fill:#fafafa;font-family:'IBMPlexSans, IBM Plex Sans'">
            <tspan
               x="26"
               y="93"
               style="font-family:SimHei;-inkscape-font-specification:SimHei"
               id="tspan3176">每小时提交一次</tspan>
          </text>
        </g>
        <g
           id="usage"
           transform="translate(943.000000, 523.000000)">
          <g
             id="g72"
             fill="#C8F08F">
            <rect
               id="rect74"
               x="0"
               y="0"
               width="126"
               height="87"
               rx="6" />
          </g>
          <text
             id="Usage"
             font-family="IBMPlexSans-SemiBold, IBM Plex Sans"
             font-size="20"
             font-weight="500"
             line-spacing="25"
             fill="#152935">
            <tspan
               x="15"
               y="28"
               id="tspan77"
               style="-inkscape-font-specification:SimHei;font-family:SimHei">使用量</tspan>
          </text>
          <text
             id="Stores-usage-by-plan"
             font-size="14"
             font-weight="normal"
             style="font-size:14px;font-weight:normal;fill:#000000;font-family:'IBMPlexSans, IBM Plex Sans'">
            <tspan
               x="15"
               y="52"
               id="tspan80"
               style="font-family:SimHei;-inkscape-font-specification:SimHei">按套餐</tspan>
          </text>
          <text
             font-size="14"
             font-weight="normal"
             id="text3178"
             x="0.66949153"
             y="17.40678"
             style="font-size:14px;font-weight:normal;fill:#000000;font-family:'IBMPlexSans, IBM Plex Sans'">
            <tspan
               x="15"
               y="70"
               style="font-family:SimHei;-inkscape-font-specification:SimHei"
               id="tspan3180">存储使用量</tspan>
          </text>
        </g>
        <g
           id="billing"
           transform="translate(1151.000000, 523.000000)">
          <g
             id="g85"
             fill="#C8F08F">
            <rect
               id="rect87"
               x="0"
               y="0"
               width="126"
               height="87"
               rx="6" />
          </g>
          <text
             id="Billing"
             font-family="IBMPlexSans-SemiBold, IBM Plex Sans"
             font-size="20"
             font-weight="500"
             line-spacing="25"
             fill="#152935">
            <tspan
               x="15"
               y="28"
               id="tspan90"
               style="-inkscape-font-specification:SimHei;font-family:SimHei">计费</tspan>
          </text>
          <text
             id="Card-is-charged"
             font-family="IBMPlexSans, IBM Plex Sans"
             font-size="14"
             font-weight="normal"
             fill="#000000">
            <tspan
               x="15"
               y="52"
               id="tspan93"
               style="-inkscape-font-specification:SimHei;font-family:SimHei">向信用卡收取费用</tspan>
          </text>
        </g>
        <g
           id="Resource-Group"
           transform="translate(382.000000, 416.000000)">
          <g
             id="Sub-Page">
            <rect
               id="rect97"
               x="0"
               y="0"
               width="432"
               height="193"
               rx="6"
               fill="#5AAAFA" />
            <g
               id="g99">
              <g
                 id="g101"
                 transform="translate(0.000000, 0.000000)">
                <path
                   d="M0,5.99884495 C0,2.68577437 2.68842315,0 6.00388767,0 L425.996112,0 C429.311968,0 432,2.68870147 432,5.99884495 L432,30 L0,30 L0,5.99884495 Z"
                   id="path103"
                   fill="#CFD8DC" />
                <circle
                   id="circle105"
                   cx="10.5"
                   cy="15.75"
                   r="3.5"
                   fill="#F9F9FA"
                   d="m 14,15.75 c 0,1.932997 -1.567003,3.5 -3.5,3.5 -1.9329966,0 -3.5,-1.567003 -3.5,-3.5 0,-1.932997 1.5670034,-3.5 3.5,-3.5 1.932997,0 3.5,1.567003 3.5,3.5 z" />
                <circle
                   id="circle107"
                   cx="20.5"
                   cy="15.75"
                   r="3.5"
                   fill="#F9F9FA"
                   d="m 24,15.75 c 0,1.932997 -1.567003,3.5 -3.5,3.5 -1.932997,0 -3.5,-1.567003 -3.5,-3.5 0,-1.932997 1.567003,-3.5 3.5,-3.5 1.932997,0 3.5,1.567003 3.5,3.5 z" />
                <circle
                   id="circle109"
                   cx="30.5"
                   cy="15.75"
                   r="3.5"
                   fill="#F9F9FA"
                   d="m 34,15.75 c 0,1.932997 -1.567003,3.5 -3.5,3.5 -1.932997,0 -3.5,-1.567003 -3.5,-3.5 0,-1.932997 1.567003,-3.5 3.5,-3.5 1.932997,0 3.5,1.567003 3.5,3.5 z" />
              </g>
            </g>
          </g>
          <path
             d="M138.5,71.5 L138.5,157.5"
             id="Line"
             stroke-linecap="square"
             stroke="#FAFAFA" />
          <text
             font-size="20"
             font-weight="500"
             line-spacing="25"
             id="text112"
             font-family="IBMPlexSans-SemiBold, IBM Plex Sans"
             fill="#FAFAFA">
            <tspan
               x="21"
               y="103"
               id="tspan114"
               style="-inkscape-font-specification:SimHei;font-family:SimHei">资源组</tspan>
          </text>
          <text
             id="Service-Instance"
             font-size="18"
             font-weight="500"
             line-spacing="25"
             font-family="IBMPlexSans-SemiBold, IBM Plex Sans"
             fill="#FAFAFA">
            <tspan
               x="171"
               y="89"
               id="tspan119"
               style="-inkscape-font-specification:SimHei;font-family:SimHei">服务实例</tspan>
          </text>
          <text
             id="•-Create-connection"
             font-size="14"
             font-weight="normal"
             line-spacing="20"
             style="font-size:14px;font-weight:normal;fill:#fafafa;font-family:'IBMPlexSans, IBM Plex Sans'">
            <tspan
               x="171"
               y="118"
               id="tspan122">• <tspan
   style="font-family:SimHei;-inkscape-font-specification:SimHei"
   id="tspan3162">创建与应用程序的连接（绑定)</tspan>
</tspan>
          </text>
          <text
             font-size="14"
             font-weight="normal"
             line-spacing="20"
             style="font-size:14px;font-weight:normal;fill:#fafafa;font-family:'IBMPlexSans, IBM Plex Sans'"
             id="text3168"
             x="-1.3389831"
             y="20.754236">
            <tspan
               x="171"
               y="138"
               id="tspan3170">• <tspan
   style="font-family:SimHei;-inkscape-font-specification:SimHei"
   id="tspan3172">生成服务密钥</tspan>
</tspan>
          </text>
        </g>
        <g
           id="IAM"
           transform="translate(382.000000, 46.000000)">
          <g
             id="g127">
            <rect
               id="rect129"
               fill="#00B4A0"
               x="0"
               y="0"
               width="162"
               height="174"
               rx="6" />
            <g
               id="g131">
              <g
                 id="g133"
                 transform="translate(0.000000, 0.000000)">
                <path
                   d="M0,5.9921751 C0,2.68278818 2.67665175,0 6.00627079,0 L155.993729,0 C159.310901,0 162,2.68757343 162,5.9921751 L162,27 L0,27 L0,5.9921751 Z"
                   id="path135"
                   fill="#CFD8DC" />
                <circle
                   id="circle137"
                   fill="#F9F9FA"
                   cx="10.5"
                   cy="14.175"
                   r="3.5"
                   d="m 14,14.175 c 0,1.932997 -1.567003,3.5 -3.5,3.5 -1.9329966,0 -3.5,-1.567003 -3.5,-3.5 0,-1.932996 1.5670034,-3.5 3.5,-3.5 1.932997,0 3.5,1.567004 3.5,3.5 z" />
                <circle
                   id="circle139"
                   fill="#F9F9FA"
                   cx="20.5"
                   cy="14.175"
                   r="3.5"
                   d="m 24,14.175 c 0,1.932997 -1.567003,3.5 -3.5,3.5 -1.932997,0 -3.5,-1.567003 -3.5,-3.5 0,-1.932996 1.567003,-3.5 3.5,-3.5 1.932997,0 3.5,1.567004 3.5,3.5 z" />
                <circle
                   id="circle141"
                   fill="#F9F9FA"
                   cx="30.5"
                   cy="14.175"
                   r="3.5"
                   d="m 34,14.175 c 0,1.932997 -1.567003,3.5 -3.5,3.5 -1.932997,0 -3.5,-1.567003 -3.5,-3.5 0,-1.932996 1.567003,-3.5 3.5,-3.5 1.932997,0 3.5,1.567004 3.5,3.5 z" />
              </g>
            </g>
          </g>
          <text
             font-family="IBMPlexSans-SemiBold, IBM Plex Sans"
             font-size="20"
             font-weight="500"
             line-spacing="25"
             fill="#FAFAFA"
             id="text143">
            <tspan
               x="17"
               y="73"
               id="tspan145">IAM</tspan>
          </text>
          <text
             id="Authorizes-user"
             font-family="IBMPlexSans, IBM Plex Sans"
             font-size="14"
             font-weight="normal"
             line-spacing="20"
             fill="#FAFAFA">
            <tspan
               x="17"
               y="100"
               id="tspan148"
               style="-inkscape-font-specification:SimHei;font-family:SimHei">授权用户</tspan>
          </text>
        </g>
        <g
           id="Resource-Controller"
           transform="translate(679.000000, 46.000000)">
          <g
             id="g151">
            <rect
               id="rect153"
               x="0"
               y="0"
               width="162"
               height="174"
               rx="6"
               fill="#607D8B" />
            <g
               id="g155">
              <g
                 id="g157"
                 transform="translate(0.000000, 0.000000)">
                <path
                   d="M0,5.9921751 C0,2.68278818 2.67665175,0 6.00627079,0 L155.993729,0 C159.310901,0 162,2.68757343 162,5.9921751 L162,27 L0,27 L0,5.9921751 Z"
                   id="path159"
                   fill="#CFD8DC" />
                <circle
                   id="circle161"
                   cx="10.5"
                   cy="14.175"
                   r="3.5"
                   fill="#F9F9FA"
                   d="m 14,14.175 c 0,1.932997 -1.567003,3.5 -3.5,3.5 -1.9329966,0 -3.5,-1.567003 -3.5,-3.5 0,-1.932996 1.5670034,-3.5 3.5,-3.5 1.932997,0 3.5,1.567004 3.5,3.5 z" />
                <circle
                   id="circle163"
                   cx="20.5"
                   cy="14.175"
                   r="3.5"
                   fill="#F9F9FA"
                   d="m 24,14.175 c 0,1.932997 -1.567003,3.5 -3.5,3.5 -1.932997,0 -3.5,-1.567003 -3.5,-3.5 0,-1.932996 1.567003,-3.5 3.5,-3.5 1.932997,0 3.5,1.567004 3.5,3.5 z" />
                <circle
                   id="circle165"
                   cx="30.5"
                   cy="14.175"
                   r="3.5"
                   fill="#F9F9FA"
                   d="m 34,14.175 c 0,1.932997 -1.567003,3.5 -3.5,3.5 -1.932997,0 -3.5,-1.567003 -3.5,-3.5 0,-1.932996 1.567003,-3.5 3.5,-3.5 1.932997,0 3.5,1.567004 3.5,3.5 z" />
              </g>
            </g>
          </g>
          <text
             id="IBM-Cloud-provisioni"
             font-size="20"
             font-weight="500"
             line-spacing="25"
             style="font-size:20px;font-weight:500;fill:#ffffff;font-family:'IBMPlexSans-SemiBold, IBM Plex Sans'"
             x="2"
             y="4">
            <tspan
               x="27"
               y="62"
               id="tspan168">IBM Cloud <tspan
   style="font-family:SimHei;-inkscape-font-specification:SimHei"
   id="tspan3089" />
</tspan>
          </text>
          <text
             font-size="20"
             font-weight="500"
             line-spacing="25"
             style="font-size:20px;font-weight:500;fill:#ffffff;font-family:'IBMPlexSans-SemiBold, IBM Plex Sans'"
             id="text3107"
             y="29.440678"
             x="2">
            <tspan
               x="27"
               y="87"
               id="tspan3109">
              <tspan
                 style="font-family:SimHei;-inkscape-font-specification:SimHei"
                 id="tspan3111">供应层</tspan>
            </tspan>
          </text>
          <text
             id="Creates-the-service"
             font-size="14"
             font-weight="normal"
             line-spacing="20"
             style="font-size:14px;font-weight:normal;fill:#ffffff;font-family:'IBMPlexSans, IBM Plex Sans'"
             x="2"
             y="-10">
            <tspan
               x="27"
               y="127"
               id="tspan175"
               style="font-family:SimHei;-inkscape-font-specification:SimHei">创建</tspan>
          </text>
          <text
             font-size="14"
             font-weight="normal"
             line-spacing="20"
             id="text3113"
             y="7.4067802"
             style="font-size:14px;font-weight:normal;fill:#ffffff;font-family:'IBMPlexSans, IBM Plex Sans'"
             x="0">
            <tspan
               x="27"
               y="143"
               style="font-family:SimHei;-inkscape-font-specification:SimHei"
               id="tspan3115">服务实例</tspan>
          </text>
        </g>
        <g
           id="Open-Service"
           transform="translate(975.000000, 0.000000)">
          <g
             id="g180">
            <rect
               id="rect182"
               x="0"
               y="0"
               width="248"
               height="312"
               rx="6"
               fill="#BA8FF7" />
            <g
               id="g184">
              <g
                 id="g186"
                 transform="translate(0.000000, 0.000000)">
                <path
                   d="M0,6.00017566 C0,2.68637015 2.67969716,0 6.00748919,0 L241.992511,0 C245.310355,0 248,2.68697795 248,6.00017566 L248,32 L0,32 L0,6.00017566 Z"
                   id="path188"
                   fill="#CFD8DC" />
                <circle
                   id="circle190"
                   cx="10.5"
                   cy="16.8"
                   r="3.5"
                   fill="#F9F9FA"
                   d="m 14,16.799999 c 0,1.932997 -1.567003,3.5 -3.5,3.5 -1.9329966,0 -3.5,-1.567003 -3.5,-3.5 0,-1.932996 1.5670034,-3.5 3.5,-3.5 1.932997,0 3.5,1.567004 3.5,3.5 z" />
                <circle
                   id="circle192"
                   cx="20.5"
                   cy="16.8"
                   r="3.5"
                   fill="#F9F9FA"
                   d="m 24,16.799999 c 0,1.932997 -1.567003,3.5 -3.5,3.5 -1.932997,0 -3.5,-1.567003 -3.5,-3.5 0,-1.932996 1.567003,-3.5 3.5,-3.5 1.932997,0 3.5,1.567004 3.5,3.5 z" />
                <circle
                   id="circle194"
                   cx="30.5"
                   cy="16.8"
                   r="3.5"
                   fill="#F9F9FA"
                   d="m 34,16.799999 c 0,1.932997 -1.567003,3.5 -3.5,3.5 -1.932997,0 -3.5,-1.567003 -3.5,-3.5 0,-1.932996 1.567003,-3.5 3.5,-3.5 1.932997,0 3.5,1.567004 3.5,3.5 z" />
              </g>
            </g>
          </g>
          <g
             id="external"
             transform="translate(136.000000, 224.000000)">
            <rect
               id="Rectangle-8"
               fill="#FFFFFF"
               x="5"
               y="0"
               width="70.8710167"
               height="62.106383"
               rx="5" />
            <text
               id="Free-Plan"
               font-size="14"
               font-weight="normal"
               letter-spacing="0.2333334"
               x="-12.711864"
               y="10.033898"
               style="font-size:14px;font-weight:normal;letter-spacing:0.23333339;fill:#152935;font-family:'.AppleSystemUIFont'">
              <tspan
                 x="12"
                 y="35"
                 id="tspan199"
                 style="font-family:SimHei;-inkscape-font-specification:SimHei">免费套餐</tspan>
            </text>
          </g>
          <g
             id="g203"
             transform="translate(44.000000, 224.000000)">
            <rect
               id="rect205"
               x="5"
               y="0"
               width="70.8710167"
               height="62.106383"
               rx="5"
               fill="#FFFFFF" />
            <text
               id="Metered-Plan"
               font-size="14"
               font-weight="normal"
               letter-spacing="0.2333334"
               y="8.7118645"
               style="font-size:14px;font-weight:normal;letter-spacing:0.23333339;fill:#152935;font-family:'.AppleSystemUIFont'"
               x="0">
              <tspan
                 x="12"
                 y="35"
                 id="tspan208"
                 style="font-family:SimHei;-inkscape-font-specification:SimHei">计量套餐</tspan>
            </text>
          </g>
          <text
             id="Open-Service-Broker"
             font-family="IBMPlexSans-SemiBold, IBM Plex Sans"
             font-size="20"
             font-weight="500"
             line-spacing="25"
             fill="#FAFAFA">
            <tspan
               x="26"
               y="89"
               id="tspan213">Open Service Broker</tspan>
          </text>
          <text
             id="Provisioning-details"
             font-size="14"
             font-weight="normal"
             line-spacing="20"
             style="font-size:14px;font-weight:normal;fill:#fafafa;font-family:'IBMPlexSans, IBM Plex Sans'">
            <tspan
               x="26"
               y="121"
               id="tspan216"
               style="font-family:SimHei;-inkscape-font-specification:SimHei">供应详细信息（服务标识、</tspan>
          </text>
          <text
             font-size="14"
             font-weight="normal"
             line-spacing="20"
             id="text3120"
             x="-1.338985"
             y="18.745764"
             style="font-size:14px;font-weight:normal;fill:#fafafa;font-family:'IBMPlexSans, IBM Plex Sans'">
            <tspan
               x="26"
               y="139"
               style="font-family:SimHei;-inkscape-font-specification:SimHei"
               id="tspan3122">套餐标识、可绑定、套餐详细信息）</tspan>
          </text>
          <text
             font-size="14"
             font-weight="normal"
             line-spacing="20"
             x="-1.8704711e-006"
             y="37.491528"
             style="font-size:14px;font-weight:normal;fill:#fafafa;font-family:'IBMPlexSans, IBM Plex Sans'"
             id="text3128">
            <tspan
               x="26"
               y="157"
               style="font-family:SimHei;-inkscape-font-specification:SimHei"
               id="tspan3130">通过 <tspan
   style="-inkscape-font-specification:Arial;font-family:Arial;font-weight:normal;font-style:normal;font-stretch:normal;font-variant:normal"
   id="tspan3132">HTTPS</tspan>


 公共端点托管</tspan>
          </text>
        </g>
        <g
           id="Path-2-Copy-3"
           transform="translate(1060.000000, 325.500000) rotate(-90.000000) translate(-1060.000000, -325.500000) translate(1018.500000, 317.500000)">
          <g
             id="arrow-down">
            <g
               id="g226">
              <path
                 d="M3,8 L81,8"
                 id="path228"
                 stroke="#152935"
                 stroke-width="2" />
              <polygon
                 id="polygon230"
                 fill="#152935"
                 points="73 16 73 0 83 8" />
              <polygon
                 id="polygon232"
                 fill="#152935"
                 transform="translate(5.000000, 8.000000) scale(-1, -1) translate(-5.000000, -8.000000) "
                 points="0 16 0 0 10 8" />
            </g>
          </g>
        </g>
        <g
           id="g234"
           transform="translate(786.000000, 536.000000)">
          <path
             d="M138,55 L19.9926431,55 C8.95101122,55 0,46.0408909 0,35.0076135 L0,19.9923865 C0,8.95089633 8.94823541,0 19.9926431,0 L138,0"
             stroke="#152935"
             stroke-width="2"
             id="path236" />
          <polygon
             id="polygon238"
             fill="#152935"
             fill-rule="evenodd"
             points="130 8 130 -8 140 1.77635684e-15" />
        </g>
        <g
           id="g240"
           transform="translate(759.500000, 348.000000) scale(-1, -1) rotate(90.000000) translate(-759.500000, -348.000000) translate(640.500000, 320.500000)">
          <path
             d="M238,55 L20.0099356,55 C8.95875331,55 0,46.0408909 0,35.0076135 L0,19.9923865 C0,8.95089633 8.94929355,0 20.0099356,0 L238,0"
             stroke="#152935"
             stroke-width="2"
             id="path242" />
          <polygon
             id="polygon244"
             fill="#152935"
             fill-rule="evenodd"
             points="230 8 230 -8 240 1.77635684e-15" />
        </g>
        <g
           id="g246"
           transform="translate(1051.000000, 508.500000) scale(-1, 1) rotate(90.000000) translate(-1051.000000, -508.500000) translate(1015.500000, 499.500000)">
          <path
             d="M0,9 L69,9"
             stroke="#152935"
             stroke-width="2"
             id="path248" />
          <polygon
             id="polygon250"
             fill="#152935"
             fill-rule="evenodd"
             points="61 17 61 1 71 9" />
        </g>
        <g
           id="g252"
           transform="translate(916.500000, 116.500000) scale(-1, -1) translate(-916.500000, -116.500000) translate(847.000000, 89.000000)">
          <path
             d="M139,55 L20.0077834,55 C8.95778977,55 0,46.0408909 0,35.0076135 L0,19.9923865 C0,8.95089633 8.95973297,0 20.0077834,0 L139,0"
             stroke="#152935"
             stroke-width="2"
             id="path254" />
          <polygon
             id="polygon256"
             fill="#152935"
             fill-rule="evenodd"
             points="131 8 131 -8 141 1.77635684e-15" />
        </g>
        <path
           d="M116.638531,479.540525 C124.417162,479.027988 132.215922,478.729138 139.969003,477.956462 C152.637633,476.692928 165.074771,474.220056 176.952918,469.464771 C182.961672,467.059256 188.786935,464.265081 193.261176,459.392114 C197.692061,454.566375 197.665738,450.003098 193.275112,445.156454 C189.740005,441.25359 185.240214,438.719554 180.512027,436.611342 C164.68069,429.550417 147.857573,426.917281 130.740251,425.771429 C117.072871,424.855522 103.420976,425.198503 89.8194054,426.916507 C77.5696303,428.463407 65.5467029,430.959505 54.1276704,435.820859 C48.7057784,438.129596 43.5161537,440.850994 39.4623158,445.288847 C35.3349267,449.807993 35.2528589,454.535406 39.3446337,459.08707 C40.7119137,460.607646 42.2967506,461.98654 43.962881,463.175748 C49.9050517,467.419271 56.6222207,470.050859 63.5461076,472.163717 C80.8430502,477.441603 98.6215602,479.170445 116.638531,479.540525 M27.0065971,524.756766 C27.0065971,500.627295 26.9841446,476.498598 27.0220816,452.369901 C27.0321465,446.10875 30.3411807,441.385982 34.6907722,437.341435 C42.1302924,430.422968 51.2204585,426.47907 60.7387707,423.447982 C74.084073,419.198266 87.8397141,417.253415 101.783492,416.448996 C114.875623,415.694127 127.953043,415.845875 140.992527,417.250318 C157.157554,418.992322 172.96876,422.148834 187.511787,429.864752 C193.370342,432.973262 198.727973,436.760767 202.506187,442.379312 C204.705758,445.649635 205.900386,449.174678 205.894192,453.237806 C205.829158,501.173123 205.846965,549.107665 205.870966,597.044529 C205.872514,599.228616 205.282555,601.013977 204.175415,602.984377 C200.095253,610.248149 193.774487,614.83775 186.664012,618.561768 C175.576347,624.369224 163.60297,627.365471 151.34313,629.369938 C139.09413,631.37363 126.740608,632.13237 114.351473,631.981396 C95.920292,631.756097 77.6656341,630.033448 60.0094515,624.290253 C51.0710333,621.382267 42.4090131,617.758898 35.4719644,611.223671 C32.4269406,608.355171 30.0957516,604.700058 27.6329445,601.264825 C27.0344692,600.429438 27.0329207,599.048222 27.0313723,597.91708 C26.9996291,573.530567 27.0065971,549.143279 27.0065971,524.756766"
           id="Fill-1"
           fill="#EFC100" />
        <text
           id="IBM-Cloud-Catalog"
           font-family="IBMPlexSans-SemiBold, IBM Plex Sans"
           font-size="20"
           font-weight="500"
           line-spacing="25"
           fill="#152935">
          <tspan
             x="52"
             y="513"
             id="tspan260">IBM Cloud</tspan>
          <tspan
             x="52"
             y="538"
             id="tspan262"
             style="-inkscape-font-specification:SimHei;font-family:SimHei">目录</tspan>
        </text>
        <text
           id="Holds-all-catalog-re"
           font-size="14"
           font-weight="normal"
           line-spacing="20"
           style="font-size:14px;font-weight:normal;fill:#152935;font-family:'IBMPlexSans, IBM Plex Sans'">
          <tspan
             x="52"
             y="563"
             id="tspan265"
             style="font-family:SimHei;-inkscape-font-specification:SimHei">保存所有呈现</tspan>
        </text>
        <text
           font-size="14"
           font-weight="normal"
           line-spacing="20"
           id="text3148"
           style="font-size:14px;font-weight:normal;fill:#152935;font-family:'IBMPlexSans, IBM Plex Sans'"
           y="16.067797">
          <tspan
             x="52"
             y="581"
             style="font-family:SimHei;-inkscape-font-specification:SimHei"
             id="tspan3150">用于显示 <tspan
   style="-inkscape-font-specification:Arial;font-family:Arial;font-weight:normal;font-style:normal;font-stretch:normal;font-variant:normal"
   id="tspan3156">UI</tspan>


 的</tspan>
        </text>
        <text
           font-size="14"
           font-weight="normal"
           line-spacing="20"
           id="text3152"
           x="-0.66949153"
           y="32.805084"
           style="font-size:14px;font-weight:normal;fill:#152935;font-family:'IBMPlexSans, IBM Plex Sans'">
          <tspan
             x="52"
             y="599"
             style="font-family:SimHei;-inkscape-font-specification:SimHei"
             id="tspan3154">元数据的目录</tspan>
        </text>
      </g>
    </g>
  </g>
</svg>
