<?xml version="1.0" encoding="UTF-8" standalone="no"?>
<svg
   xmlns:dc="http://purl.org/dc/elements/1.1/"
   xmlns:cc="http://creativecommons.org/ns#"
   xmlns:rdf="http://www.w3.org/1999/02/22-rdf-syntax-ns#"
   xmlns:svg="http://www.w3.org/2000/svg"
   xmlns="http://www.w3.org/2000/svg"
   xmlns:sodipodi="http://sodipodi.sourceforge.net/DTD/sodipodi-0.dtd"
   xmlns:inkscape="http://www.inkscape.org/namespaces/inkscape"
   width="1277px"
   height="632px"
   viewBox="0 0 1277 632"
   version="1.1"
   id="svg2"
   inkscape:version="0.48.5 r"
   sodipodi:docname="flow-am.svg">
  <metadata
     id="metadata273">
    <rdf:RDF>
      <cc:Work
         rdf:about="">
        <dc:format>image/svg+xml</dc:format>
        <dc:type
           rdf:resource="http://purl.org/dc/dcmitype/StillImage" />
      </cc:Work>
    </rdf:RDF>
  </metadata>
  <sodipodi:namedview
     pagecolor="#ffffff"
     bordercolor="#666666"
     borderopacity="1"
     objecttolerance="10"
     gridtolerance="10"
     guidetolerance="10"
     inkscape:pageopacity="0"
     inkscape:pageshadow="2"
     inkscape:window-width="1680"
     inkscape:window-height="987"
     id="namedview271"
     showgrid="false"
     inkscape:zoom="0.74683544"
     inkscape:cx="810.51"
     inkscape:cy="165.2786"
     inkscape:window-x="-4"
     inkscape:window-y="-4"
     inkscape:window-maximized="1"
     inkscape:current-layer="svg2" />
  <!-- Generator: Sketch 50.2 (55047) - http://www.bohemiancoding.com/sketch -->
  <title
     id="title4">Group</title>
  <desc
     id="desc6">Created with Sketch.</desc>
  <defs
     id="defs8" />
  <g
     id="Page-1"
     stroke-width="1"
     stroke="none"
     fill-rule="evenodd"
     fill="none">
    <g
       id="Artboard"
       transform="translate(-150.000000, -108.000000)">
      <g
         id="Group"
         transform="translate(150.000000, 108.000000)">
        <g
           id="Path-2"
           transform="translate(559.000000, 128.000000)">
          <path
             d="M0,8 L98,8"
             id="path14"
             stroke-width="2"
             stroke="#152935" />
          <polygon
             id="Triangle"
             points="90 16 90 0 100 8"
             fill-rule="evenodd"
             fill="#152935" />
        </g>
        <g
           id="g17"
           transform="translate(1079.000000, 555.000000)">
          <path
             d="M0,9 L60,9"
             id="path19"
             stroke-width="2"
             stroke="#152935" />
          <polygon
             id="polygon21"
             points="52 17 52 1 62 9"
             fill-rule="evenodd"
             fill="#152935" />
        </g>
        <g
           id="g23"
           transform="translate(259.000000, 128.000000)">
          <path
             d="M0,8 L98,8"
             id="path25"
             stroke-width="2"
             stroke="#152935" />
          <polygon
             id="polygon27"
             points="90 16 90 0 100 8"
             fill-rule="evenodd"
             fill="#152935" />
        </g>
        <g
           id="g29"
           transform="translate(117.000000, 340.000000) rotate(-90.000000) translate(-117.000000, -340.000000) translate(54.000000, 332.000000)">
          <path
             d="M0,8 L124,8"
             id="path31"
             stroke-width="2"
             stroke="#152935" />
          <polygon
             id="polygon33"
             points="116 16 116 0 126 8"
             fill-rule="evenodd"
             fill="#152935" />
        </g>
        <g
           id="IBM-Cloud">
          <g
             id="Page">
            <rect
               id="Mask"
               x="0"
               y="0"
               width="248"
               height="267"
               rx="6"
               fill="#3D70B2" />
            <g
               id="Base-Elements-/-Browser">
              <g
                 id="Browser"
                 transform="translate(0.000000, 0.000000)">
                <path
                   d="M0,6.00670248 C0,2.6892923 2.67969716,0 6.00748919,0 L241.992511,0 C245.310355,0 248,2.68475771 248,6.00670248 L248,28 L0,28 L0,6.00670248 Z"
                   id="Combined-Shape"
                   fill="#CFD8DC" />
                <circle
                   id="Oval"
                   cx="10.5"
                   cy="14.7"
                   r="3.5"
                   d="m 14,14.7 c 0,1.932996 -1.567003,3.5 -3.5,3.5 -1.9329966,0 -3.5,-1.567004 -3.5,-3.5 0,-1.932997 1.5670034,-3.5 3.5,-3.5 1.932997,0 3.5,1.567003 3.5,3.5 z"
                   fill="#F9F9FA" />
                <circle
                   id="circle42"
                   cx="20.5"
                   cy="14.7"
                   r="3.5"
                   d="m 24,14.7 c 0,1.932996 -1.567003,3.5 -3.5,3.5 -1.932997,0 -3.5,-1.567004 -3.5,-3.5 0,-1.932997 1.567003,-3.5 3.5,-3.5 1.932997,0 3.5,1.567003 3.5,3.5 z"
                   fill="#F9F9FA" />
                <circle
                   id="circle44"
                   cx="30.5"
                   cy="14.7"
                   r="3.5"
                   d="m 34,14.7 c 0,1.932996 -1.567003,3.5 -3.5,3.5 -1.932997,0 -3.5,-1.567004 -3.5,-3.5 0,-1.932997 1.567003,-3.5 3.5,-3.5 1.932997,0 3.5,1.567003 3.5,3.5 z"
                   fill="#F9F9FA" />
              </g>
            </g>
          </g>
          <text
             font-size="20"
             font-weight="500"
             line-spacing="25"
             id="text46"
             font-family="IBMPlexSans-SemiBold, IBM Plex Sans"
             fill="#FAFAFA">
            <tspan
               x="22"
               y="101"
               id="tspan48"
               style="-inkscape-font-specification:Arial;font-family:Arial;font-weight:normal;font-style:normal;font-stretch:normal;font-variant:normal">IBM Cloud</tspan>
          </text>
          <text
             id="User-logs-in,-goes-t"
             font-size="14"
             font-weight="normal"
             line-spacing="20"
             sodipodi:linespacing="100%"
             y="147.15254"
             style="font-size:14px;font-weight:normal;line-height:100%;fill:#fafafa;font-family:'IBMPlexSans, IBM Plex Sans'"
             x="33.474575">
            <tspan
               sodipodi:role="line"
               id="tspan5598"
               x="33.474575"
               y="147.15254">ユーザーはログインし、</tspan>
            <tspan
               sodipodi:role="line"
               id="tspan5600"
               x="33.474575"
               y="161.15254">カタログに移動し、</tspan>
            <tspan
               sodipodi:role="line"
               id="tspan5602"
               x="33.474575"
               y="175.15254">サービスを選択します。</tspan>
            <tspan
               sodipodi:role="line"
               id="tspan5604"
               x="33.474575"
               y="189.15254">ユーザーは、「サービス・</tspan>
            <tspan
               sodipodi:role="line"
               id="tspan5606"
               x="33.474575"
               y="203.15254">ダッシュボードから作成」を</tspan>
            <tspan
               sodipodi:role="line"
               id="tspan5608"
               x="33.474575"
               y="217.15254">クリックします。</tspan>
          </text>
        </g>
        <g
           id="metered-plan"
           transform="translate(975.000000, 352.000000)">
          <g
             id="Comment-Up"
             fill="#BA8FF7">
            <rect
               id="rect59"
               x="0"
               y="0"
               width="248"
               height="131.283341"
               rx="6" />
          </g>
          <text
             id="Metered-Plan-Usage-S"
             font-size="20"
             font-weight="500"
             line-spacing="25"
             font-family="IBMPlexSans-SemiBold, IBM Plex Sans"
             fill="#FAFAFA">
            <tspan
               x="26"
               y="36"
               id="tspan62"
               style="-inkscape-font-specification:MS UI Gothic;font-family:MS UI Gothic;font-weight:normal;font-style:normal;font-stretch:normal;font-variant:normal">課金プラン使用量の送信</tspan>
          </text>
          <text
             id="Service-provider-mus"
             font-size="14"
             font-weight="normal"
             sodipodi:linespacing="100%"
             y="80.86441"
             style="font-size:14px;font-weight:normal;line-height:100%;fill:#fafafa;font-family:'IBMPlexSans, IBM Plex Sans'"
             x="38.135593">
            <tspan
               sodipodi:role="line"
               id="tspan5630"
               x="38.135593"
               y="80.86441"
               style="-inkscape-font-specification:MS UI Gothic;font-family:MS UI Gothic;font-weight:normal;font-style:normal;font-stretch:normal;font-variant:normal">サービス・プロバイダーは</tspan>
            <tspan
               sodipodi:role="line"
               id="tspan5632"
               x="38.135593"
               y="94.86441"
               style="-inkscape-font-specification:MS UI Gothic;font-family:MS UI Gothic;font-weight:normal;font-style:normal;font-stretch:normal;font-variant:normal">毎時送信する必要があります</tspan>
          </text>
        </g>
        <g
           id="usage"
           transform="translate(943.000000, 523.000000)">
          <g
             id="g72"
             fill="#C8F08F">
            <rect
               id="rect74"
               x="0"
               y="0"
               width="126"
               height="87"
               rx="6" />
          </g>
          <text
             id="Usage"
             font-size="20"
             font-weight="500"
             line-spacing="25"
             font-family="IBMPlexSans-SemiBold, IBM Plex Sans"
             fill="#152935">
            <tspan
               x="15"
               y="28"
               id="tspan77"
               style="-inkscape-font-specification:MS UI Gothic;font-family:MS UI Gothic;font-weight:normal;font-style:normal;font-stretch:normal;font-variant:normal">使用量</tspan>
          </text>
          <text
             id="Stores-usage-by-plan"
             font-size="14"
             font-weight="normal"
             sodipodi:linespacing="100%"
             y="48"
             style="font-size:14px;font-style:normal;font-variant:normal;font-weight:normal;font-stretch:normal;text-align:start;line-height:100%;writing-mode:lr-tb;text-anchor:start;fill:#000000;font-family:MS UI Gothic;-inkscape-font-specification:MS UI Gothic"
             x="34">
            <tspan
               sodipodi:role="line"
               id="tspan5668"
               x="34"
               y="48">プランごとに</tspan>
            <tspan
               sodipodi:role="line"
               id="tspan5670"
               x="34"
               y="62">使用量を</tspan>
            <tspan
               sodipodi:role="line"
               x="34"
               y="76"
               id="tspan5485">保管します</tspan>
          </text>
        </g>
        <g
           id="billing"
           transform="translate(1151.000000, 523.000000)">
          <g
             id="g85"
             fill="#C8F08F">
            <rect
               id="rect87"
               x="0"
               y="0"
               width="126"
               height="87"
               rx="6" />
          </g>
          <text
             id="Billing"
             font-size="20"
             font-weight="500"
             line-spacing="25"
             font-family="IBMPlexSans-SemiBold, IBM Plex Sans"
             fill="#152935">
            <tspan
               x="16"
               y="28"
               id="tspan90"
               style="-inkscape-font-specification:MS UI Gothic;font-family:MS UI Gothic;font-weight:normal;font-style:normal;font-stretch:normal;font-variant:normal">請求処理</tspan>
          </text>
          <text
             id="Card-is-charged"
             font-size="14"
             font-weight="normal"
             x="30"
             style="font-size:14px;font-style:normal;font-variant:normal;font-weight:normal;font-stretch:normal;text-align:start;line-height:100%;writing-mode:lr-tb;text-anchor:start;fill:#000000;font-family:MS UI Gothic;-inkscape-font-specification:MS UI Gothic"
             y="54"
             sodipodi:linespacing="100%">
            <tspan
               sodipodi:role="line"
               id="tspan5487"
               x="30"
               y="54">カードに</tspan>
            <tspan
               sodipodi:role="line"
               id="tspan5489"
               x="30"
               y="68">請求されます</tspan>
          </text>
        </g>
        <g
           id="Resource-Group"
           transform="translate(382.000000, 416.000000)">
          <g
             id="Sub-Page">
            <rect
               id="rect97"
               x="0"
               y="0"
               width="432"
               height="193"
               rx="6"
               fill="#5AAAFA" />
            <g
               id="g99">
              <g
                 id="g101"
                 transform="translate(0.000000, 0.000000)">
                <path
                   d="M0,5.99884495 C0,2.68577437 2.68842315,0 6.00388767,0 L425.996112,0 C429.311968,0 432,2.68870147 432,5.99884495 L432,30 L0,30 L0,5.99884495 Z"
                   id="path103"
                   fill="#CFD8DC" />
                <circle
                   id="circle105"
                   cx="10.5"
                   cy="15.75"
                   r="3.5"
                   d="m 14,15.75 c 0,1.932997 -1.567003,3.5 -3.5,3.5 -1.9329966,0 -3.5,-1.567003 -3.5,-3.5 0,-1.932997 1.5670034,-3.5 3.5,-3.5 1.932997,0 3.5,1.567003 3.5,3.5 z"
                   fill="#F9F9FA" />
                <circle
                   id="circle107"
                   cx="20.5"
                   cy="15.75"
                   r="3.5"
                   d="m 24,15.75 c 0,1.932997 -1.567003,3.5 -3.5,3.5 -1.932997,0 -3.5,-1.567003 -3.5,-3.5 0,-1.932997 1.567003,-3.5 3.5,-3.5 1.932997,0 3.5,1.567003 3.5,3.5 z"
                   fill="#F9F9FA" />
                <circle
                   id="circle109"
                   cx="30.5"
                   cy="15.75"
                   r="3.5"
                   d="m 34,15.75 c 0,1.932997 -1.567003,3.5 -3.5,3.5 -1.932997,0 -3.5,-1.567003 -3.5,-3.5 0,-1.932997 1.567003,-3.5 3.5,-3.5 1.932997,0 3.5,1.567003 3.5,3.5 z"
                   fill="#F9F9FA" />
              </g>
            </g>
          </g>
          <path
             d="M138.5,71.5 L138.5,157.5"
             id="Line"
             stroke-linecap="square"
             stroke="#FAFAFA" />
          <text
             font-size="20"
             font-weight="500"
             line-spacing="25"
             id="text112"
             sodipodi:linespacing="125%"
             y="110"
             style="font-size:20px;font-weight:500;line-height:125%;fill:#fafafa;font-family:'IBMPlexSans-SemiBold, IBM Plex Sans'"
             x="28">
            <tspan
               sodipodi:role="line"
               id="tspan5650"
               x="28"
               y="110">リソース・</tspan>
            <tspan
               sodipodi:role="line"
               id="tspan5652"
               x="28"
               y="135">グループ</tspan>
          </text>
          <text
             id="Service-Instance"
             font-size="18"
             font-weight="500"
             line-spacing="25"
             font-family="IBMPlexSans-SemiBold, IBM Plex Sans"
             fill="#FAFAFA">
            <tspan
               x="171"
               y="89"
               id="tspan119"
               style="-inkscape-font-specification:MS UI Gothic;font-family:MS UI Gothic;font-weight:normal;font-style:normal;font-stretch:normal;font-variant:normal">サービス・インスタンス</tspan>
          </text>
        </g>
        <g
           id="IAM"
           transform="translate(382.000000, 46.000000)">
          <g
             id="g127">
            <rect
               id="rect129"
               x="0"
               y="0"
               width="162"
               height="174"
               rx="6"
               fill="#00B4A0" />
            <g
               id="g131">
              <g
                 id="g133"
                 transform="translate(0.000000, 0.000000)">
                <path
                   d="M0,5.9921751 C0,2.68278818 2.67665175,0 6.00627079,0 L155.993729,0 C159.310901,0 162,2.68757343 162,5.9921751 L162,27 L0,27 L0,5.9921751 Z"
                   id="path135"
                   fill="#CFD8DC" />
                <circle
                   id="circle137"
                   cx="10.5"
                   cy="14.175"
                   r="3.5"
                   d="m 14,14.175 c 0,1.932997 -1.567003,3.5 -3.5,3.5 -1.9329966,0 -3.5,-1.567003 -3.5,-3.5 0,-1.932996 1.5670034,-3.5 3.5,-3.5 1.932997,0 3.5,1.567004 3.5,3.5 z"
                   fill="#F9F9FA" />
                <circle
                   id="circle139"
                   cx="20.5"
                   cy="14.175"
                   r="3.5"
                   d="m 24,14.175 c 0,1.932997 -1.567003,3.5 -3.5,3.5 -1.932997,0 -3.5,-1.567003 -3.5,-3.5 0,-1.932996 1.567003,-3.5 3.5,-3.5 1.932997,0 3.5,1.567004 3.5,3.5 z"
                   fill="#F9F9FA" />
                <circle
                   id="circle141"
                   cx="30.5"
                   cy="14.175"
                   r="3.5"
                   d="m 34,14.175 c 0,1.932997 -1.567003,3.5 -3.5,3.5 -1.932997,0 -3.5,-1.567003 -3.5,-3.5 0,-1.932996 1.567003,-3.5 3.5,-3.5 1.932997,0 3.5,1.567004 3.5,3.5 z"
                   fill="#F9F9FA" />
              </g>
            </g>
          </g>
          <text
             font-size="20"
             font-weight="500"
             line-spacing="25"
             id="text143"
             font-family="IBMPlexSans-SemiBold, IBM Plex Sans"
             fill="#FAFAFA">
            <tspan
               x="17"
               y="73"
               id="tspan145"
               style="-inkscape-font-specification:Arial;font-family:Arial;font-weight:normal;font-style:normal;font-stretch:normal;font-variant:normal">IAM </tspan>
          </text>
          <text
             id="Authorizes-user"
             font-size="14"
             font-weight="normal"
             line-spacing="20"
             font-family="IBMPlexSans, IBM Plex Sans"
             fill="#FAFAFA">
            <tspan
               x="17"
               y="100"
               id="tspan148"
               style="-inkscape-font-specification:MS UI Gothic;font-family:MS UI Gothic;font-weight:normal;font-style:normal;font-stretch:normal;font-variant:normal">ユーザーの許可</tspan>
          </text>
        </g>
        <g
           id="Resource-Controller"
           transform="translate(679.000000, 46.000000)">
          <g
             id="g151">
            <rect
               id="rect153"
               x="0"
               y="0"
               width="162"
               height="174"
               rx="6"
               fill="#607D8B" />
            <g
               id="g155">
              <g
                 id="g157"
                 transform="translate(0.000000, 0.000000)">
                <path
                   d="M0,5.9921751 C0,2.68278818 2.67665175,0 6.00627079,0 L155.993729,0 C159.310901,0 162,2.68757343 162,5.9921751 L162,27 L0,27 L0,5.9921751 Z"
                   id="path159"
                   fill="#CFD8DC" />
                <circle
                   id="circle161"
                   cx="10.5"
                   cy="14.175"
                   r="3.5"
                   d="m 14,14.175 c 0,1.932997 -1.567003,3.5 -3.5,3.5 -1.9329966,0 -3.5,-1.567003 -3.5,-3.5 0,-1.932996 1.5670034,-3.5 3.5,-3.5 1.932997,0 3.5,1.567004 3.5,3.5 z"
                   fill="#F9F9FA" />
                <circle
                   id="circle163"
                   cx="20.5"
                   cy="14.175"
                   r="3.5"
                   d="m 24,14.175 c 0,1.932997 -1.567003,3.5 -3.5,3.5 -1.932997,0 -3.5,-1.567003 -3.5,-3.5 0,-1.932996 1.567003,-3.5 3.5,-3.5 1.932997,0 3.5,1.567004 3.5,3.5 z"
                   fill="#F9F9FA" />
                <circle
                   id="circle165"
                   cx="30.5"
                   cy="14.175"
                   r="3.5"
                   d="m 34,14.175 c 0,1.932997 -1.567003,3.5 -3.5,3.5 -1.932997,0 -3.5,-1.567003 -3.5,-3.5 0,-1.932996 1.567003,-3.5 3.5,-3.5 1.932997,0 3.5,1.567004 3.5,3.5 z"
                   fill="#F9F9FA" />
              </g>
            </g>
          </g>
          <text
             id="IBM-Cloud-provisioni"
             font-size="20"
             font-weight="500"
             line-spacing="25"
             sodipodi:linespacing="100%"
             y="54"
             style="font-size:20px;font-style:normal;font-variant:normal;font-weight:normal;font-stretch:normal;text-align:start;line-height:100%;writing-mode:lr-tb;text-anchor:start;fill:#ffffff;font-family:Sans;-inkscape-font-specification:Sans"
             x="24">
            <tspan
               sodipodi:role="line"
               id="tspan5614"
               style="font-style:normal;font-variant:normal;font-weight:normal;font-stretch:normal;font-family:Arial;-inkscape-font-specification:Arial"
               x="24"
               y="54">IBM Cloud</tspan>
            <tspan
               sodipodi:role="line"
               id="tspan5616"
               style="font-style:normal;font-variant:normal;font-weight:normal;font-stretch:normal;font-family:MS UI Gothic;-inkscape-font-specification:MS UI Gothic"
               x="24"
               y="77.818321">プロビジョニング・</tspan>
            <tspan
               sodipodi:role="line"
               id="tspan5618"
               style="font-style:normal;font-variant:normal;font-weight:normal;font-stretch:normal;font-family:MS UI Gothic;-inkscape-font-specification:MS UI Gothic"
               x="24"
               y="97.818321">レイヤー</tspan>
          </text>
          <text
             id="Creates-the-service"
             font-size="14"
             font-weight="normal"
             line-spacing="20"
             x="-20"
             style="font-size:14px;font-weight:normal;fill:#ffffff;font-family:'IBMPlexSans, IBM Plex Sans'"
             y="2">
            <tspan
               x="5"
               y="139"
               id="tspan175"
               style="font-style:normal;font-variant:normal;font-weight:normal;font-stretch:normal;font-family:MS UI Gothic;-inkscape-font-specification:MS UI Gothic">サービス・インスタンスの作成</tspan>
          </text>
        </g>
        <g
           id="Open-Service"
           transform="translate(975.000000, 0.000000)">
          <g
             id="g180">
            <rect
               id="rect182"
               x="0"
               y="0"
               width="248"
               height="312"
               rx="6"
               fill="#BA8FF7" />
            <g
               id="g184">
              <g
                 id="g186"
                 transform="translate(0.000000, 0.000000)">
                <path
                   d="M0,6.00017566 C0,2.68637015 2.67969716,0 6.00748919,0 L241.992511,0 C245.310355,0 248,2.68697795 248,6.00017566 L248,32 L0,32 L0,6.00017566 Z"
                   id="path188"
                   fill="#CFD8DC" />
                <circle
                   id="circle190"
                   cx="10.5"
                   cy="16.8"
                   r="3.5"
                   d="m 14,16.799999 c 0,1.932997 -1.567003,3.5 -3.5,3.5 -1.9329966,0 -3.5,-1.567003 -3.5,-3.5 0,-1.932996 1.5670034,-3.5 3.5,-3.5 1.932997,0 3.5,1.567004 3.5,3.5 z"
                   fill="#F9F9FA" />
                <circle
                   id="circle192"
                   cx="20.5"
                   cy="16.8"
                   r="3.5"
                   d="m 24,16.799999 c 0,1.932997 -1.567003,3.5 -3.5,3.5 -1.932997,0 -3.5,-1.567003 -3.5,-3.5 0,-1.932996 1.567003,-3.5 3.5,-3.5 1.932997,0 3.5,1.567004 3.5,3.5 z"
                   fill="#F9F9FA" />
                <circle
                   id="circle194"
                   cx="30.5"
                   cy="16.8"
                   r="3.5"
                   d="m 34,16.799999 c 0,1.932997 -1.567003,3.5 -3.5,3.5 -1.932997,0 -3.5,-1.567003 -3.5,-3.5 0,-1.932996 1.567003,-3.5 3.5,-3.5 1.932997,0 3.5,1.567004 3.5,3.5 z"
                   fill="#F9F9FA" />
              </g>
            </g>
          </g>
          <g
             id="external"
             transform="translate(136.000000, 224.000000)">
            <rect
               id="Rectangle-8"
               x="5"
               y="0"
               width="70.8710167"
               height="62.106383"
               rx="5"
               fill="#FFFFFF" />
            <text
               id="Free-Plan"
               font-size="14"
               font-weight="normal"
               letter-spacing="0.2333334"
               x="-16"
               style="font-size:14px;font-weight:normal;letter-spacing:0.23333339;fill:#152935;font-family:'.AppleSystemUIFont'"
               y="8">
              <tspan
                 x="9.2667313"
                 y="35"
                 id="tspan199"
                 style="font-style:normal;font-variant:normal;font-weight:normal;font-stretch:normal;font-family:MS UI Gothic;-inkscape-font-specification:MS UI Gothic">無料プラン</tspan>
            </text>
          </g>
          <g
             id="g203"
             transform="translate(44.000000, 224.000000)">
            <rect
               id="rect205"
               x="5"
               y="0"
               width="70.8710167"
               height="62.106383"
               rx="5"
               fill="#FFFFFF" />
            <text
               id="Metered-Plan"
               font-size="14"
               font-weight="normal"
               letter-spacing="0.2333334"
               y="10"
               style="font-size:14px;font-weight:normal;letter-spacing:0.23333339;fill:#152935;font-family:'.AppleSystemUIFont'"
               x="-2">
              <tspan
                 x="10.239486"
                 y="37"
                 id="tspan208"
                 style="font-style:normal;font-variant:normal;font-weight:normal;font-stretch:normal;font-family:MS UI Gothic;-inkscape-font-specification:MS UI Gothic">課金プラン</tspan>
            </text>
          </g>
          <text
             id="Open-Service-Broker"
             font-size="20"
             font-weight="500"
             line-spacing="25"
             font-family="IBMPlexSans-SemiBold, IBM Plex Sans"
             fill="#FAFAFA">
            <tspan
               x="26"
               y="89"
               id="tspan213"
               style="-inkscape-font-specification:MS UI Gothic;font-family:MS UI Gothic;font-weight:normal;font-style:normal;font-stretch:normal;font-variant:normal">サービス・ブローカーを開く</tspan>
          </text>
          <text
             id="Provisioning-details"
             font-size="14"
             font-weight="normal"
             line-spacing="20"
             sodipodi:linespacing="100%"
             y="126.88136"
             style="font-size:14px;font-weight:normal;line-height:100%;fill:#fafafa;font-family:'IBMPlexSans, IBM Plex Sans'"
             x="43.389832">
            <tspan
               sodipodi:role="line"
               id="tspan5620"
               x="43.389832"
               y="126.88136"
               style="font-style:normal;font-variant:normal;font-weight:normal;font-stretch:normal;font-family:MS UI Gothic;-inkscape-font-specification:MS UI Gothic">プロビジョニング詳細</tspan>
            <tspan
               sodipodi:role="line"
               id="tspan5622"
               x="43.389832"
               y="140.88136"
               style="font-style:normal;font-variant:normal;font-weight:normal;font-stretch:normal;font-family:MS UI Gothic;-inkscape-font-specification:MS UI Gothic">(サービス ID、プラン ID、</tspan>
            <tspan
               sodipodi:role="line"
               id="tspan5624"
               x="43.389832"
               y="154.88136"
               style="font-style:normal;font-variant:normal;font-weight:normal;font-stretch:normal;font-family:MS UI Gothic;-inkscape-font-specification:MS UI Gothic">バインド可能、プラン詳細)</tspan>
            <tspan
               sodipodi:role="line"
               id="tspan5626"
               x="43.389832"
               y="168.88136"
               style="font-style:normal;font-variant:normal;font-weight:normal;font-stretch:normal;font-family:MS UI Gothic;-inkscape-font-specification:MS UI Gothic">ホストされている有効な</tspan>
            <tspan
               sodipodi:role="line"
               id="tspan5628"
               x="43.389832"
               y="182.88136"
               style="font-style:normal;font-variant:normal;font-weight:normal;font-stretch:normal;font-family:MS UI Gothic;-inkscape-font-specification:MS UI Gothic"><tspan
   style="-inkscape-font-specification:Arial;font-family:Arial;font-weight:normal;font-style:normal;font-stretch:normal;font-variant:normal"
   id="tspan5672">HTTPS </tspan>

パブリック・エンドポイント</tspan>
          </text>
        </g>
        <g
           id="Path-2-Copy-3"
           transform="translate(1060.000000, 325.500000) rotate(-90.000000) translate(-1060.000000, -325.500000) translate(1018.500000, 317.500000)">
          <g
             id="arrow-down">
            <g
               id="g226">
              <path
                 d="M3,8 L81,8"
                 id="path228"
                 stroke-width="2"
                 stroke="#152935" />
              <polygon
                 id="polygon230"
                 points="73 16 73 0 83 8"
                 fill="#152935" />
              <polygon
                 id="polygon232"
                 transform="translate(5.000000, 8.000000) scale(-1, -1) translate(-5.000000, -8.000000) "
                 points="0 16 0 0 10 8"
                 fill="#152935" />
            </g>
          </g>
        </g>
        <g
           id="g234"
           transform="translate(786.000000, 536.000000)">
          <path
             d="M138,55 L19.9926431,55 C8.95101122,55 0,46.0408909 0,35.0076135 L0,19.9923865 C0,8.95089633 8.94823541,0 19.9926431,0 L138,0"
             id="path236"
             stroke-width="2"
             stroke="#152935" />
          <polygon
             id="polygon238"
             points="130 8 130 -8 140 1.77635684e-15"
             fill-rule="evenodd"
             fill="#152935" />
        </g>
        <g
           id="g240"
           transform="translate(759.500000, 348.000000) scale(-1, -1) rotate(90.000000) translate(-759.500000, -348.000000) translate(640.500000, 320.500000)">
          <path
             d="M238,55 L20.0099356,55 C8.95875331,55 0,46.0408909 0,35.0076135 L0,19.9923865 C0,8.95089633 8.94929355,0 20.0099356,0 L238,0"
             id="path242"
             stroke-width="2"
             stroke="#152935" />
          <polygon
             id="polygon244"
             points="230 8 230 -8 240 1.77635684e-15"
             fill-rule="evenodd"
             fill="#152935" />
        </g>
        <g
           id="g246"
           transform="translate(1051.000000, 508.500000) scale(-1, 1) rotate(90.000000) translate(-1051.000000, -508.500000) translate(1015.500000, 499.500000)">
          <path
             d="M0,9 L69,9"
             id="path248"
             stroke-width="2"
             stroke="#152935" />
          <polygon
             id="polygon250"
             points="61 17 61 1 71 9"
             fill-rule="evenodd"
             fill="#152935" />
        </g>
        <g
           id="g252"
           transform="translate(916.500000, 116.500000) scale(-1, -1) translate(-916.500000, -116.500000) translate(847.000000, 89.000000)">
          <path
             d="M139,55 L20.0077834,55 C8.95778977,55 0,46.0408909 0,35.0076135 L0,19.9923865 C0,8.95089633 8.95973297,0 20.0077834,0 L139,0"
             id="path254"
             stroke-width="2"
             stroke="#152935" />
          <polygon
             id="polygon256"
             points="131 8 131 -8 141 1.77635684e-15"
             fill-rule="evenodd"
             fill="#152935" />
        </g>
        <path
           d="M116.638531,479.540525 C124.417162,479.027988 132.215922,478.729138 139.969003,477.956462 C152.637633,476.692928 165.074771,474.220056 176.952918,469.464771 C182.961672,467.059256 188.786935,464.265081 193.261176,459.392114 C197.692061,454.566375 197.665738,450.003098 193.275112,445.156454 C189.740005,441.25359 185.240214,438.719554 180.512027,436.611342 C164.68069,429.550417 147.857573,426.917281 130.740251,425.771429 C117.072871,424.855522 103.420976,425.198503 89.8194054,426.916507 C77.5696303,428.463407 65.5467029,430.959505 54.1276704,435.820859 C48.7057784,438.129596 43.5161537,440.850994 39.4623158,445.288847 C35.3349267,449.807993 35.2528589,454.535406 39.3446337,459.08707 C40.7119137,460.607646 42.2967506,461.98654 43.962881,463.175748 C49.9050517,467.419271 56.6222207,470.050859 63.5461076,472.163717 C80.8430502,477.441603 98.6215602,479.170445 116.638531,479.540525 M27.0065971,524.756766 C27.0065971,500.627295 26.9841446,476.498598 27.0220816,452.369901 C27.0321465,446.10875 30.3411807,441.385982 34.6907722,437.341435 C42.1302924,430.422968 51.2204585,426.47907 60.7387707,423.447982 C74.084073,419.198266 87.8397141,417.253415 101.783492,416.448996 C114.875623,415.694127 127.953043,415.845875 140.992527,417.250318 C157.157554,418.992322 172.96876,422.148834 187.511787,429.864752 C193.370342,432.973262 198.727973,436.760767 202.506187,442.379312 C204.705758,445.649635 205.900386,449.174678 205.894192,453.237806 C205.829158,501.173123 205.846965,549.107665 205.870966,597.044529 C205.872514,599.228616 205.282555,601.013977 204.175415,602.984377 C200.095253,610.248149 193.774487,614.83775 186.664012,618.561768 C175.576347,624.369224 163.60297,627.365471 151.34313,629.369938 C139.09413,631.37363 126.740608,632.13237 114.351473,631.981396 C95.920292,631.756097 77.6656341,630.033448 60.0094515,624.290253 C51.0710333,621.382267 42.4090131,617.758898 35.4719644,611.223671 C32.4269406,608.355171 30.0957516,604.700058 27.6329445,601.264825 C27.0344692,600.429438 27.0329207,599.048222 27.0313723,597.91708 C26.9996291,573.530567 27.0065971,549.143279 27.0065971,524.756766"
           id="Fill-1"
           fill="#EFC100" />
        <text
           id="IBM-Cloud-Catalog"
           font-size="20"
           font-weight="500"
           line-spacing="25"
           style="font-size:20px;font-style:normal;font-variant:normal;font-weight:normal;font-stretch:normal;text-align:start;line-height:125%;writing-mode:lr-tb;text-anchor:start;fill:#152935;font-family:Sans;-inkscape-font-specification:Sans"
           sodipodi:linespacing="125%"
           x="47.559322"
           y="515.2373">
          <tspan
             sodipodi:role="line"
             id="tspan5640"
             style="font-style:normal;font-variant:normal;font-weight:normal;font-stretch:normal;font-family:MS UI Gothic;-inkscape-font-specification:MS UI Gothic"
             x="47.559322"
             y="515.2373">IBM Cloud カタログ</tspan>
        </text>
        <text
           id="Holds-all-catalog-re"
           font-size="14"
           font-weight="normal"
           line-spacing="20"
           sodipodi:linespacing="100%"
           x="61.59322"
           y="553"
           style="font-size:14px;font-weight:normal;line-height:100%;fill:#152935;font-family:'IBMPlexSans, IBM Plex Sans'">
          <tspan
             sodipodi:role="line"
             id="tspan5642"
             x="61.59322"
             y="553">UI の表示のための</tspan>
          <tspan
             sodipodi:role="line"
             id="tspan5644"
             x="61.59322"
             y="567.13867">すべてのカタログ・</tspan>
          <tspan
             sodipodi:role="line"
             id="tspan5646"
             x="61.59322"
             y="581.13867">レンダリング・</tspan>
          <tspan
             sodipodi:role="line"
             id="tspan5648"
             x="61.59322"
             y="595.13867">メタデータを保持</tspan>
        </text>
      </g>
    </g>
  </g>
  <text
     xml:space="preserve"
     style="font-size:20px;font-style:normal;font-variant:normal;font-weight:normal;font-stretch:normal;text-align:center;line-height:125%;letter-spacing:0px;word-spacing:0px;writing-mode:lr-tb;text-anchor:middle;fill:#000000;fill-opacity:1;stroke:none;font-family:MS UI Gothic;-inkscape-font-specification:MS UI Gothic"
     x="557.64044"
     y="541.67792"
     id="text5507"
     sodipodi:linespacing="125%"><tspan
       sodipodi:role="line"
       id="tspan5509"
       x="557.64044"
       y="541.67792"
       style="font-size:14px;text-align:start;text-anchor:start;fill:#ffffff">• アプリへの接続の作成 (バインド)</tspan><tspan
       sodipodi:role="line"
       x="557.64044"
       y="559.17792"
       id="tspan5511"
       style="font-size:14px;text-align:start;text-anchor:start;fill:#ffffff">• サービス・キーの生成</tspan></text>
</svg>
