<?xml version="1.0" encoding="utf-8"?>
<!-- Generator: Adobe Illustrator 22.1.0, SVG Export Plug-In . SVG Version: 6.00 Build 0)  -->
<svg version="1.1"
	 id="svg269" xmlns:cc="http://creativecommons.org/ns#" xmlns:dc="http://purl.org/dc/elements/1.1/" xmlns:rdf="http://www.w3.org/1999/02/22-rdf-syntax-ns#" xmlns:svg="http://www.w3.org/2000/svg"
	 xmlns="http://www.w3.org/2000/svg" xmlns:xlink="http://www.w3.org/1999/xlink" x="0px" y="0px" viewBox="0 0 1277 632"
	 style="enable-background:new 0 0 1277 632;" xml:space="preserve">
<style type="text/css">
	.st0{fill:none;stroke:#152935;stroke-width:2;}
	.st1{fill:#152935;}
	.st2{fill:#3D70B2;}
	.st3{fill:#CFD8DC;}
	.st4{fill:#F9F9FA;}
	.st5{fill:#FAFAFA;}
	.st6{font-family:'IBMPlexSans-Text';}
	.st7{font-size:20px;}
	.st8{enable-background:new    ;}
	.st9{font-family:'IBMPlexSans';}
	.st10{font-size:14px;}
	.st11{fill:#BA8FF7;}
	.st12{fill:#C8F08F;}
	.st13{fill:#5AAAFA;}
	.st14{fill:none;stroke:#FAFAFA;stroke-linecap:square;}
	.st15{font-size:18px;}
	.st16{fill:#00B4A0;}
	.st17{fill:#607D8B;}
	.st18{fill:#FFFFFF;}
	.st19{font-family:'ArialMT';}
	.st20{fill:#EFC100;}
</style>
<title  id="title2">Group</title>
<desc  id="desc4">Created with Sketch.</desc>
<g id="Page-1">
	<g id="Artboard" transform="translate(-150.000000, -108.000000)">
		<g id="g265" transform="translate(150.000000, 108.000000)">
			<g id="Path-2" transform="translate(559.000000, 128.000000)">
				<path id="path8" class="st0" d="M0,8h98"/>
				<polygon id="Triangle" class="st1" points="90,16 90,0 100,8 				"/>
			</g>
			<g id="g16" transform="translate(1079.000000, 555.000000)">
				<path id="path12" class="st0" d="M0,9h60"/>
				<polygon id="polygon14" class="st1" points="52,17 52,1 62,9 				"/>
			</g>
			<g id="g22" transform="translate(259.000000, 128.000000)">
				<path id="path18" class="st0" d="M0,8h98"/>
				<polygon id="polygon20" class="st1" points="90,16 90,0 100,8 				"/>
			</g>
			
				<g id="g28" transform="translate(117.000000, 340.000000) rotate(-90.000000) translate(-117.000000, -340.000000) translate(54.000000, 332.000000)">
				<path id="path24" class="st0" d="M0,8h124"/>
				<polygon id="polygon26" class="st1" points="116,16 116,0 126,8 				"/>
			</g>
			<g id="IBM-Cloud">
				<g id="Page">
					<path id="Mask" class="st2" d="M6,0h236c3.3,0,6,2.7,6,6v255c0,3.3-2.7,6-6,6H6c-3.3,0-6-2.7-6-6V6C0,2.7,2.7,0,6,0z"/>
					<g id="Base-Elements-_x2F_-Browser">
						<g id="Browser" transform="translate(0.000000, 0.000000)">
							<path id="Combined-Shape" class="st3" d="M0,6c0-3.3,2.7-6,6-6h236c3.3,0,6,2.7,6,6v22H0V6z"/>
							<circle id="Oval" class="st4" cx="10.5" cy="14.7" r="3.5"/>
							<circle id="circle33" class="st4" cx="20.5" cy="14.7" r="3.5"/>
							<circle id="circle35" class="st4" cx="30.5" cy="14.7" r="3.5"/>
						</g>
					</g>
				</g>
				<text transform="matrix(1 0 0 1 22 101)" class="st5 st6 st7">IBM Cloud</text>
				<text transform="matrix(1 0 0 1 22 131)" class="st8"><tspan x="0" y="0" class="st5 st9 st10">Benutzer meldet sich an, ruft den </tspan><tspan x="0" y="16.8" class="st5 st9 st10">Katalog auf und wählt einen Service </tspan><tspan x="0" y="33.6" class="st5 st9 st10">aus. Benutzer klickt auf Erstellung </tspan><tspan x="0" y="50.4" class="st5 st9 st10">über Service-Dashboard.</tspan></text>
			</g>
			<g id="metered-plan" transform="translate(975.000000, 352.000000)">
				<g id="Comment-Up">
					<path id="rect52" class="st11" d="M6,0h236c3.3,0,6,2.7,6,6v119.3c0,3.3-2.7,6-6,6H6c-3.3,0-6-2.7-6-6V6C0,2.7,2.7,0,6,0z"/>
				</g>
				<text transform="matrix(1 0 0 1 26 21)" class="st8"><tspan x="0" y="0" class="st5 st6 st7">Nutzungsabhängiger </tspan><tspan x="0" y="24" class="st5 st6 st7">Plan Übermittlung von </tspan><tspan x="0" y="48" class="st5 st6 st7">Nutzungsdaten</tspan></text>
				<text transform="matrix(1 0 0 1 30 90)" class="st8"><tspan x="0" y="0" class="st5 st9 st10">Service-Provider muss </tspan><tspan x="0" y="16.8" class="st5 st9 st10">Übermittlung  jede Stunde </tspan><tspan x="0" y="33.6" class="st5 st9 st10">durchführen</tspan></text>
			</g>
			<g id="usage" transform="translate(943.000000, 523.000000)">
				<g id="g68">
					<path id="rect66" class="st12" d="M6,0h114c3.3,0,6,2.7,6,6v75c0,3.3-2.7,6-6,6H6c-3.3,0-6-2.7-6-6V6C0,2.7,2.7,0,6,0z"/>
				</g>
				<text transform="matrix(1 0 0 1 15 28)" class="st1 st6 st7">Nutzung</text>
				<text transform="matrix(1 0 0 1 -1 52)" class="st8"><tspan x="0" y="0" class="st9 st10">Speichert Nutzungs-</tspan><tspan x="0" y="16.8" class="st9 st10">daten nach Plan</tspan></text>
			</g>
			<g id="billing" transform="translate(1151.000000, 523.000000)">
				<g id="g81">
					<path id="rect79" class="st12" d="M6,0h114c3.3,0,6,2.7,6,6v75c0,3.3-2.7,6-6,6H6c-3.3,0-6-2.7-6-6V6C0,2.7,2.7,0,6,0z"/>
				</g>
				<text transform="matrix(1 0 0 1 9 28)" class="st1 st6 st7">Abrechnung</text>
				<text transform="matrix(1 0 0 1 16 52)" class="st8"><tspan x="0" y="0" class="st9 st10">Karte wird </tspan><tspan x="0" y="16.8" class="st9 st10">belastet</tspan></text>
			</g>
			<g id="Resource-Group" transform="translate(382.000000, 416.000000)">
				<g id="Sub-Page">
					<path id="rect90" class="st13" d="M6,0h420c3.3,0,6,2.7,6,6v181c0,3.3-2.7,6-6,6H6c-3.3,0-6-2.7-6-6V6C0,2.7,2.7,0,6,0z"/>
					<g id="g102">
						<g id="g100" transform="translate(0.000000, 0.000000)">
							<path id="path92" class="st3" d="M0,6c0-3.3,2.7-6,6-6h420c3.3,0,6,2.7,6,6v24H0V6z"/>
							<circle id="circle94" class="st4" cx="10.5" cy="15.8" r="3.5"/>
							<circle id="circle96" class="st4" cx="20.5" cy="15.8" r="3.5"/>
							<circle id="circle98" class="st4" cx="30.5" cy="15.8" r="3.5"/>
						</g>
					</g>
				</g>
				<path id="Line" class="st14" d="M138.5,71.5v86"/>
				<text transform="matrix(1 0 0 1 21 103)" class="st5 st6 st7">Ressourcen-</text>
				<text transform="matrix(1 0 0 1 134.7585 103)" class="st5 st6 st7"> </text>
				<text transform="matrix(1 0 0 1 21 128)" class="st5 st6 st7">gruppe</text>
				<text transform="matrix(1 0 0 1 171 89)" class="st5 st6 st15">Serviceinstanz</text>
				<text transform="matrix(1 0 0 1 171 118)" class="st5 st9 st10">• Verbindung zu App (Bindung) erstellen</text>
				<text transform="matrix(1 0 0 1 421.6525 118)" class="st5 st9 st10"> </text>
				<text transform="matrix(1 0 0 1 171 142)" class="st5 st9 st10">• Serviceschlüssel generieren</text>
			</g>
			<g id="IAM" transform="translate(382.000000, 46.000000)">
				<g id="g135">
					<path id="rect121" class="st16" d="M6,0h150c3.3,0,6,2.7,6,6v162c0,3.3-2.7,6-6,6H6c-3.3,0-6-2.7-6-6V6C0,2.7,2.7,0,6,0z"/>
					<g id="g133">
						<g id="g131" transform="translate(0.000000, 0.000000)">
							<path id="path123" class="st3" d="M0,6c0-3.3,2.7-6,6-6h150c3.3,0,6,2.7,6,6v21H0V6z"/>
							<circle id="circle125" class="st4" cx="10.5" cy="14.2" r="3.5"/>
							<circle id="circle127" class="st4" cx="20.5" cy="14.2" r="3.5"/>
							<circle id="circle129" class="st4" cx="30.5" cy="14.2" r="3.5"/>
						</g>
					</g>
				</g>
				<text transform="matrix(1 0 0 1 17 73)" class="st5 st6 st7">IAM</text>
				<text transform="matrix(1 0 0 1 17 100)" class="st8"><tspan x="0" y="0" class="st5 st9 st10">Berechtigung von </tspan><tspan x="0" y="16.8" class="st5 st9 st10">Benutzern</tspan></text>
			</g>
			<g id="Resource-Controller" transform="translate(679.000000, 46.000000)">
				<g id="g159">
					<path id="rect145" class="st17" d="M6,0h150c3.3,0,6,2.7,6,6v162c0,3.3-2.7,6-6,6H6c-3.3,0-6-2.7-6-6V6C0,2.7,2.7,0,6,0z"/>
					<g id="g157">
						<g id="g155" transform="translate(0.000000, 0.000000)">
							<path id="path147" class="st3" d="M0,6c0-3.3,2.7-6,6-6h150c3.3,0,6,2.7,6,6v21H0V6z"/>
							<circle id="circle149" class="st4" cx="10.5" cy="14.2" r="3.5"/>
							<circle id="circle151" class="st4" cx="20.5" cy="14.2" r="3.5"/>
							<circle id="circle153" class="st4" cx="30.5" cy="14.2" r="3.5"/>
						</g>
					</g>
				</g>
				<text transform="matrix(1 0 0 1 7 58)" class="st18 st6 st7">IBM Cloud-</text>
				<text transform="matrix(1 0 0 1 109.7591 58)" class="st18 st6 st7"> </text>
				<text transform="matrix(1 0 0 1 7 83)" class="st18 st6 st7">Bereitstellungs-</text>
				<text transform="matrix(1 0 0 1 151.8984 83)" class="st18 st6 st7"> </text>
				<text transform="matrix(1 0 0 1 7 108)" class="st18 st6 st7">ebene</text>
				<text transform="matrix(1 0 0 1 25 137)" class="st18 st9 st10">Erstellt die </text>
				<text transform="matrix(1 0 0 1 25 157)" class="st18 st9 st10">Serviceinstanz</text>
			</g>
			<g id="Open-Service" transform="translate(975.000000, 0.000000)">
				<g id="g188">
					<path id="rect174" class="st11" d="M6,0h236c3.3,0,6,2.7,6,6v300c0,3.3-2.7,6-6,6H6c-3.3,0-6-2.7-6-6V6C0,2.7,2.7,0,6,0z"/>
					<g id="g186">
						<g id="g184" transform="translate(0.000000, 0.000000)">
							<path id="path176" class="st3" d="M0,6c0-3.3,2.7-6,6-6h236c3.3,0,6,2.7,6,6v26H0V6z"/>
							<circle id="circle178" class="st4" cx="10.5" cy="16.8" r="3.5"/>
							<circle id="circle180" class="st4" cx="20.5" cy="16.8" r="3.5"/>
							<circle id="circle182" class="st4" cx="30.5" cy="16.8" r="3.5"/>
						</g>
					</g>
				</g>
				<g id="external" transform="translate(136.000000, 224.000000)">
					<path id="Rectangle-8" class="st18" d="M10,0h60.9c2.8,0,5,2.2,5,5v52.1c0,2.8-2.2,5-5,5H10c-2.8,0-5-2.2-5-5V5
						C5,2.2,7.2,0,10,0z"/>
					<text transform="matrix(1 0 0 1 15.2667 15)" class="st8"><tspan x="0" y="0" class="st1 st19 st10">Kosten-</tspan><tspan x="0" y="16.8" class="st1 st19 st10">loser </tspan></text>
					<text transform="matrix(1 0 0 1 15.6769 49)" class="st1 st19 st10">Plan</text>
				</g>
				<g id="g204" transform="translate(44.000000, 224.000000)">
					<path id="rect197" class="st18" d="M5.8,0h70.4C79.4,0,82,2.2,82,5v52.1c0,2.8-2.6,5-5.8,5H5.8c-3.2,0-5.8-2.2-5.8-5V5
						C0,2.2,2.6,0,5.8,0z"/>
					<text transform="matrix(1 0 0 1 3.2395 19)" class="st8"><tspan x="0" y="0" class="st1 st19 st10">Nutzungs-</tspan><tspan x="0" y="16.8" class="st1 st19 st10">abhängiger </tspan></text>
					<text transform="matrix(1 0 0 1 4.6769 52)" class="st1 st19 st10">Plan</text>
				</g>
				<text transform="matrix(1 0 0 1 26 89)" class="st5 st6 st7">Open Service Broker</text>
				<text transform="matrix(1 0 0 1 26 121)" class="st5 st9 st10">Bereitstellungsdetails (Service-ID, </text>
				<text transform="matrix(1 0 0 1 26 141)" class="st8"><tspan x="0" y="0" class="st5 st9 st10">Plan-IDs, Bindung möglich, </tspan><tspan x="0" y="16.8" class="st5 st9 st10">Plandetails)</tspan></text>
				<text transform="matrix(1 0 0 1 274.6504 141)" class="st5 st9 st10"> </text>
				<text transform="matrix(1 0 0 1 26 171)" class="st5 st9 st10">Gehosteter gültiger öffentlicher </text>
				<text transform="matrix(1 0 0 1 26 191)" class="st5 st9 st10">HTTPS-Endpunkt</text>
			</g>
			
				<g id="Path-2-Copy-3" transform="translate(1060.000000, 325.500000) rotate(-90.000000) translate(-1060.000000, -325.500000) translate(1018.500000, 317.500000)">
				<g id="arrow-down">
					<g id="Group">
						<path id="path219" class="st0" d="M17.5,8h63.9"/>
						<polygon id="polygon221" class="st1" points="74.8,16 74.8,0 83,8 						"/>
						<polygon id="polygon223" class="st1" points="23.2,0 23.2,16 15,8 						"/>
					</g>
				</g>
			</g>
			<g id="g232" transform="translate(786.000000, 536.000000)">
				<path id="path228" class="st0" d="M138,55H20C9,55,0,46,0,35V20C0,9,8.9,0,20,0h118"/>
				<polygon id="polygon230" class="st1" points="130,8 130,-8 140,0 				"/>
			</g>
			
				<g id="g238" transform="translate(759.500000, 348.000000) scale(-1, -1) rotate(90.000000) translate(-759.500000, -348.000000) translate(640.500000, 320.500000)">
				<path id="path234" class="st0" d="M238,55H20C9,55,0,46,0,35V20C0,9,8.9,0,20,0h218"/>
				<polygon id="polygon236" class="st1" points="230,8 230,-8 240,0 				"/>
			</g>
			
				<g id="g244" transform="translate(1051.000000, 508.500000) scale(-1, 1) rotate(90.000000) translate(-1051.000000, -508.500000) translate(1015.500000, 499.500000)">
				<path id="path240" class="st0" d="M0,9h69"/>
				<polygon id="polygon242" class="st1" points="61,17 61,1 71,9 				"/>
			</g>
			
				<g id="g250" transform="translate(916.500000, 116.500000) scale(-1, -1) translate(-916.500000, -116.500000) translate(847.000000, 89.000000)">
				<path id="path246" class="st0" d="M139,55H20C9,55,0,46,0,35V20C0,9,9,0,20,0h119"/>
				<polygon id="polygon248" class="st1" points="131,8 131,-8 141,0 				"/>
			</g>
			<path id="Fill-1" class="st20" d="M116.6,479.5c7.8-0.5,15.6-0.8,23.3-1.6c12.7-1.3,25.1-3.7,37-8.5c6-2.4,11.8-5.2,16.3-10.1
				c4.4-4.8,4.4-9.4,0-14.2c-3.5-3.9-8-6.4-12.8-8.5c-15.8-7.1-32.7-9.7-49.8-10.8c-13.7-0.9-27.3-0.6-40.9,1.1
				c-12.2,1.5-24.3,4-35.7,8.9c-5.4,2.3-10.6,5-14.7,9.5c-4.1,4.5-4.2,9.2-0.1,13.8c1.4,1.5,3,2.9,4.6,4.1c5.9,4.2,12.7,6.9,19.6,9
				C80.8,477.4,98.6,479.2,116.6,479.5 M27,524.8c0-24.1,0-48.3,0-72.4c0-6.3,3.3-11,7.7-15c7.4-6.9,16.5-10.9,26-13.9
				c13.3-4.2,27.1-6.2,41-7c13.1-0.8,26.2-0.6,39.2,0.8c16.2,1.7,32,4.9,46.5,12.6c5.9,3.1,11.2,6.9,15,12.5
				c2.2,3.3,3.4,6.8,3.4,10.9c-0.1,47.9,0,95.9,0,143.8c0,2.2-0.6,4-1.7,5.9c-4.1,7.3-10.4,11.9-17.5,15.6
				c-11.1,5.8-23.1,8.8-35.3,10.8c-12.2,2-24.6,2.8-37,2.6c-18.4-0.2-36.7-1.9-54.3-7.7c-8.9-2.9-17.6-6.5-24.5-13.1
				c-3-2.9-5.4-6.5-7.8-10c-0.6-0.8-0.6-2.2-0.6-3.3C27,573.5,27,549.1,27,524.8"/>
			<text transform="matrix(1 0 0 1 52 513)" class="st1 st6 st7">IBM Cloud-</text>
			<text transform="matrix(1 0 0 1 154.7591 513)" class="st1 st6 st7"> </text>
			<text transform="matrix(1 0 0 1 52 538)" class="st1 st6 st7">Katalog</text>
			<text transform="matrix(1 0 0 1 34 557)" class="st1 st9 st10">Enthält alle Metadaten für </text>
			<text transform="matrix(1 0 0 1 34 577)" class="st1 st9 st10">die Katalogdarstellung zur </text>
			<text transform="matrix(1 0 0 1 34 597)" class="st8"><tspan x="0" y="0" class="st1 st9 st10">Anzeige der Benutzer-</tspan><tspan x="0" y="16.8" class="st1 st9 st10">           schnittstelle</tspan></text>
		</g>
	</g>
</g>
</svg>
